<svg width="298" height="182" viewBox="0 0 298 182" fill="none" xmlns="http://www.w3.org/2000/svg">
<path d="M0 149.837L5.48732 143.253C9.29017 146.392 13.2717 148.383 18.0954 148.383C21.8982 148.383 24.1953 146.877 24.1953 144.401V144.274C24.1953 141.926 22.7405 140.7 15.6708 138.888C7.14628 136.719 1.65896 134.371 1.65896 125.974V125.846C1.65896 118.19 7.80986 113.111 16.462 113.111C22.6129 113.111 27.8705 115.05 32.1583 118.496L27.3345 125.489C23.5827 122.886 19.9075 121.329 16.3344 121.329C12.7612 121.329 10.8981 122.962 10.8981 125.004V125.132C10.8981 127.914 12.7102 128.807 20.0096 130.696C28.5851 132.942 33.4089 136.004 33.4089 143.38V143.508C33.4089 151.905 27.0027 156.601 17.8912 156.601C11.5361 156.601 5.07896 154.38 0 149.837Z" fill="#231F20"/>
<path d="M37.8752 134.983V134.856C37.8752 122.835 46.9357 112.983 59.9266 112.983C67.8896 112.983 72.6623 115.637 76.5928 119.517L70.6716 126.331C67.4047 123.371 64.0868 121.559 59.8756 121.559C52.7548 121.559 47.6248 127.48 47.6248 134.728V134.856C47.6248 142.104 52.6272 148.153 59.8756 148.153C64.6993 148.153 67.6599 146.213 70.9778 143.202L76.8991 149.174C72.5602 153.819 67.711 156.729 59.5693 156.729C47.1144 156.729 37.8752 147.132 37.8752 134.983Z" fill="#231F20"/>
<path d="M82.9224 113.723H92.2125V155.988H82.9224V113.723Z" fill="#231F20"/>
<path d="M100.967 113.723H132.844V121.993H110.206V130.568H130.139V138.837H110.206V147.719H133.151V155.988H100.967V113.723Z" fill="#231F20"/>
<path d="M139.633 113.723H148.209L168.014 139.756V113.723H177.202V155.988H169.29L148.821 129.139V156.014H139.633V113.723Z" fill="#231F20"/>
<path d="M183.659 134.983V134.856C183.659 122.835 192.72 112.983 205.711 112.983C213.674 112.983 218.447 115.637 222.377 119.517L216.456 126.331C213.189 123.371 209.871 121.559 205.634 121.559C198.513 121.559 193.383 127.48 193.383 134.728V134.856C193.383 142.104 198.386 148.153 205.634 148.153C210.458 148.153 213.419 146.213 216.737 143.202L222.658 149.174C218.319 153.819 213.47 156.729 205.328 156.729C192.899 156.729 183.659 147.132 183.659 134.983Z" fill="#231F20"/>
<path d="M228.298 113.723H260.176V121.993H237.537V130.568H257.47V138.837H237.537V147.719H260.482V155.988H228.298V113.723Z" fill="#231F20"/>
<path d="M264.055 149.837L269.542 143.253C273.345 146.392 277.327 148.383 282.151 148.383C285.953 148.383 288.25 146.877 288.25 144.401V144.274C288.25 141.926 286.796 140.7 279.726 138.888C271.201 136.719 265.714 134.371 265.714 125.974V125.846C265.714 118.19 271.865 113.111 280.517 113.111C286.668 113.111 291.926 115.05 296.213 118.496L291.39 125.489C287.638 122.886 283.963 121.329 280.39 121.329C276.816 121.329 274.953 122.962 274.953 125.004V125.132C274.953 127.914 276.765 128.807 284.065 130.696C292.64 132.942 297.464 136.004 297.464 143.38V143.508C297.464 151.905 291.058 156.601 281.946 156.601C275.566 156.601 269.109 154.38 264.055 149.837Z" fill="#231F20"/>
<path d="M47.0378 66.0984H56.328V99.9156H77.4095V108.364H47.0378V66.0984Z" fill="#231F20"/>
<path d="M83.0503 66.0984H92.3405V108.364H83.0503V66.0984Z" fill="#231F20"/>
<path d="M101.094 66.0984H133.278V74.5463H110.385V83.5558H130.547V92.0037H110.385V108.364H101.094V66.0984Z" fill="#231F20"/>
<path d="M138.893 66.0984H170.771V74.3677H148.132V82.9432H168.065V91.2125H148.132V100.094H171.077V108.364H138.893V66.0984Z" fill="#231F20"/>
<path d="M101.247 166.121H111.456V168.801H104.183V171.659H110.589V174.339H104.183V179.546H101.222V166.121H101.247Z" fill="url(#paint0_linear_35_9086)"/>
<path d="M112.069 172.859V172.833C112.069 169.005 115.081 165.891 119.215 165.891C123.35 165.891 126.336 168.979 126.336 172.782V172.833C126.336 176.636 123.324 179.775 119.19 179.775C115.03 179.775 112.069 176.687 112.069 172.859ZM123.222 172.859V172.833C123.222 170.536 121.538 168.622 119.164 168.622C116.791 168.622 115.132 170.511 115.132 172.808V172.859C115.132 175.156 116.816 177.07 119.19 177.07C121.589 177.044 123.222 175.181 123.222 172.859Z" fill="url(#paint1_linear_35_9086)"/>
<path d="M127.765 166.121H133.891C135.601 166.121 136.928 166.606 137.796 167.474C138.536 168.214 138.944 169.286 138.944 170.536V170.562C138.944 172.731 137.77 174.084 136.06 174.722L139.352 179.52H135.907L133.023 175.232H130.7V179.52H127.74V166.121H127.765ZM133.712 172.629C135.141 172.629 135.983 171.863 135.983 170.74V170.715C135.983 169.439 135.09 168.801 133.661 168.801H130.726V172.655H133.712V172.629Z" fill="url(#paint2_linear_35_9086)"/>
<path d="M140.246 173.803V166.121H143.206V173.727C143.206 175.921 144.304 177.044 146.116 177.044C147.903 177.044 149 175.947 149 173.829V166.146H151.961V173.727C151.961 177.785 149.689 179.775 146.065 179.775C142.466 179.75 140.246 177.734 140.246 173.803Z" fill="url(#paint3_linear_35_9086)"/>
<path d="M153.773 166.121H156.963L160.485 171.787L164.007 166.121H167.197V179.546H164.262V170.791L160.485 176.534H160.409L156.657 170.868V179.571H153.773V166.121Z" fill="url(#paint4_linear_35_9086)"/>
<path d="M180.188 164.232H182.664L174.165 181.996H171.689L180.188 164.232Z" fill="url(#paint5_linear_35_9086)"/>
<path d="M186.85 172.859V172.833C186.85 169.005 189.734 165.891 193.843 165.891C196.37 165.891 197.901 166.733 199.126 167.958L197.237 170.128C196.191 169.184 195.145 168.622 193.792 168.622C191.52 168.622 189.913 170.511 189.913 172.808V172.859C189.913 175.156 191.495 177.07 193.792 177.07C195.323 177.07 196.268 176.457 197.314 175.488L199.203 177.376C197.825 178.857 196.293 179.775 193.69 179.775C189.759 179.775 186.85 176.713 186.85 172.859Z" fill="url(#paint6_linear_35_9086)"/>
<path d="M199.432 172.859V172.833C199.432 169.005 202.444 165.891 206.579 165.891C210.713 165.891 213.699 168.979 213.699 172.782V172.833C213.699 176.636 210.688 179.775 206.553 179.775C202.393 179.775 199.432 176.687 199.432 172.859ZM210.611 172.859V172.833C210.611 170.536 208.927 168.622 206.553 168.622C204.18 168.622 202.521 170.511 202.521 172.808V172.859C202.521 175.156 204.205 177.07 206.579 177.07C208.952 177.044 210.611 175.181 210.611 172.859Z" fill="url(#paint7_linear_35_9086)"/>
<path d="M214.133 177.58L215.869 175.488C217.068 176.483 218.345 177.121 219.876 177.121C221.075 177.121 221.816 176.636 221.816 175.845V175.794C221.816 175.054 221.356 174.671 219.11 174.084C216.405 173.395 214.669 172.655 214.669 169.975C214.669 167.55 216.634 165.917 219.365 165.917C221.331 165.917 222.99 166.529 224.342 167.627L222.811 169.847C221.611 169.03 220.463 168.52 219.314 168.52C218.191 168.52 217.579 169.03 217.579 169.694V169.745C217.579 170.638 218.166 170.919 220.488 171.506C223.219 172.221 224.751 173.191 224.751 175.539V175.564C224.751 178.218 222.709 179.724 219.825 179.724C217.783 179.724 215.741 179.035 214.133 177.58Z" fill="url(#paint8_linear_35_9086)"/>
<path d="M228.987 168.852H224.904V166.121H236.031V168.852H231.948V179.546H228.987V168.852Z" fill="url(#paint9_linear_35_9086)"/>
<path d="M239.987 166.019H242.718L248.461 179.546H245.373L244.148 176.534H238.482L237.257 179.546H234.245L239.987 166.019ZM243.101 173.931L241.315 169.592L239.528 173.931H243.101Z" fill="url(#paint10_linear_35_9086)"/>
<path d="M253.974 166.121H260.099C261.809 166.121 263.136 166.606 264.004 167.474C264.744 168.214 265.153 169.286 265.153 170.536V170.562C265.153 172.731 263.979 174.084 262.269 174.722L265.561 179.52H262.115L259.231 175.232H256.909V179.52H253.948V166.121H253.974ZM259.895 172.629C261.324 172.629 262.166 171.863 262.166 170.74V170.715C262.166 169.439 261.273 168.801 259.844 168.801H256.909V172.655H259.895V172.629Z" fill="url(#paint11_linear_35_9086)"/>
<path d="M266.786 166.121H269.747V179.546H266.786V166.121Z" fill="url(#paint12_linear_35_9086)"/>
<path d="M271.354 172.859V172.833C271.354 169.005 274.239 165.891 278.348 165.891C280.874 165.891 282.406 166.733 283.631 167.958L281.742 170.128C280.696 169.184 279.649 168.622 278.297 168.622C276.025 168.622 274.417 170.511 274.417 172.808V172.859C274.417 175.156 276 177.07 278.297 177.07C279.828 177.07 280.772 176.457 281.819 175.488L283.707 177.376C282.329 178.857 280.798 179.775 278.195 179.775C274.264 179.775 271.354 176.713 271.354 172.859Z" fill="url(#paint13_linear_35_9086)"/>
<path d="M289.526 166.019H292.257L298 179.546H294.912L293.687 176.534H288.021L286.796 179.546H283.784L289.526 166.019ZM292.615 173.931L290.828 169.592L289.042 173.931H292.615Z" fill="url(#paint14_linear_35_9086)"/>
<path d="M229.728 31.0561C233.479 33.8636 235.317 38.6873 234.373 43.2813C232.688 51.474 224.087 55.4811 216.992 52.2142C213.24 50.4787 210.764 47.1097 210.024 43.3579C209.437 40.4484 207.395 38.0492 204.69 36.8242L189.326 29.7545C187.182 28.7591 184.706 28.4018 182.46 29.1419C180.622 29.7545 178.555 29.7034 176.641 28.8101C172.123 26.7173 170.439 20.9747 173.553 16.7125C175.135 14.5176 178.836 13.0628 181.49 13.5988C184.349 14.1602 186.391 16.0489 187.386 18.3459C188.33 20.5919 190.27 22.3019 192.516 23.3228L207.702 30.3159C210.382 31.541 213.546 31.5921 216.099 30.1373C220.131 27.8147 225.44 27.8403 229.728 31.0561Z" fill="url(#paint15_linear_35_9086)"/>
<path d="M227.481 11.021C229.881 12.144 231.463 14.5941 231.539 17.2485C231.667 22.1488 227.303 25.5688 222.836 24.6245C220.718 24.1906 219.008 22.8634 218.013 21.1279C216.864 19.1116 214.899 17.7079 212.627 17.2485L204.409 15.5385C202.827 15.2067 201.219 15.5895 199.739 16.2786C198.82 16.7125 197.799 16.8401 196.778 16.6359C193.919 16.0489 192.184 12.9352 193.46 10.1022C194.175 8.51981 195.808 7.39682 197.544 7.34577C198.973 7.29473 200.198 7.85622 201.066 8.74951C202.367 10.0767 203.899 11.1997 205.736 11.5825L213.265 13.1394C215.537 13.5988 218.013 13.267 219.85 11.8377C221.892 10.2298 224.776 9.74488 227.481 11.021Z" fill="url(#paint16_linear_35_9086)"/>
<path d="M223.424 0.0463434C224.7 0.225 225.797 1.16933 226.205 2.39441C226.946 4.6659 225.389 6.88636 223.168 7.09054C222.249 7.1671 221.382 6.91188 220.718 6.40143C219.34 5.35501 217.528 5.07426 215.792 5.2274L214.286 5.35501C213.01 5.48262 211.887 6.06964 210.815 6.73322C210.535 6.91188 210.203 7.01397 209.846 7.06501C208.391 7.19263 207.115 5.94203 207.37 4.35963C207.498 3.54292 208.11 2.85381 208.876 2.59859C209.437 2.41993 209.973 2.44545 210.458 2.62411C211.632 3.08351 212.857 3.44083 214.108 3.33874L216.099 3.16008C217.655 3.00695 219.187 2.39441 220.233 1.22038C220.948 0.32709 222.122 -0.157836 223.424 0.0463434Z" fill="url(#paint17_linear_35_9086)"/>
<path d="M210.382 55.5832C208.085 55.2514 205.839 55.2514 203.669 55.5066C196.548 56.3999 189.402 53.9242 184.323 48.8452L172.915 37.4367C169.444 33.9657 166.891 29.5248 166.381 24.65C165.973 20.8471 163.931 17.2229 160.179 14.8749C156.121 12.3482 150.991 12.2461 146.882 14.6707C139.072 19.2647 138.128 29.4737 144.074 35.4204C146.269 37.6154 149.026 38.8405 151.859 39.1467C156.784 39.6827 161.251 42.2605 164.747 45.757L175.697 56.7062C180.903 61.9127 183.328 69.2632 182.281 76.5371C181.899 79.268 181.95 82.1776 182.537 85.1382C184.527 95.0409 192.669 102.851 202.623 104.459C218.855 107.087 232.79 93.8923 231.412 77.8643C230.417 66.5833 221.586 57.1911 210.382 55.5832Z" fill="url(#paint18_linear_35_9086)"/>
<path d="M125.111 40.8567C129.89 40.8567 133.763 36.9831 133.763 32.2046C133.763 27.4262 129.89 23.5525 125.111 23.5525C120.333 23.5525 116.459 27.4262 116.459 32.2046C116.459 36.9831 120.333 40.8567 125.111 40.8567Z" fill="url(#paint19_linear_35_9086)"/>
<path d="M103.009 47.6712C106.293 47.6712 108.955 45.0088 108.955 41.7245C108.955 38.4402 106.293 35.7777 103.009 35.7777C99.7242 35.7777 97.0618 38.4402 97.0618 41.7245C97.0618 45.0088 99.7242 47.6712 103.009 47.6712Z" fill="url(#paint20_linear_35_9086)"/>
<path d="M88.3333 61.9893C91.2088 61.9893 93.5399 59.6583 93.5399 56.7827C93.5399 53.9072 91.2088 51.5762 88.3333 51.5762C85.4578 51.5762 83.1267 53.9072 83.1267 56.7827C83.1267 59.6583 85.4578 61.9893 88.3333 61.9893Z" fill="url(#paint21_linear_35_9086)"/>
<path d="M188.892 91.6974V87.6903L196.574 81.4118C198.08 80.1868 199.126 79.1914 199.713 78.4257C200.275 77.66 200.581 76.8178 200.581 75.899C200.581 74.9291 200.3 74.189 199.739 73.6785C199.177 73.1681 198.437 72.9129 197.493 72.9129C196.625 72.9129 195.859 73.1426 195.17 73.6275C194.481 74.1124 193.69 74.9036 192.771 76.0266L189.223 73.1681C190.448 71.5091 191.699 70.3096 192.975 69.5439C194.251 68.7782 195.859 68.3954 197.824 68.3954C200.198 68.3954 202.112 69.0334 203.567 70.3351C205.022 71.6367 205.762 73.3467 205.762 75.5161V75.5927C205.762 77.4048 205.328 78.8851 204.435 80.0591C203.567 81.2332 201.985 82.7135 199.688 84.5L195.936 87.4096H205.966V91.7995H188.892V91.6974Z" fill="white"/>
<path d="M216.992 92.1057C214.21 92.1057 211.989 91.289 210.33 89.6301C208.518 87.818 207.599 84.9084 207.599 80.9014V80.8248C207.599 77.0986 208.467 74.0614 210.177 71.7388C211.887 69.4163 214.414 68.2423 217.706 68.2423C220.386 68.2423 222.785 69.0845 224.929 70.769L222.275 74.6994C221.458 74.0614 220.718 73.602 220.003 73.2957C219.289 72.9894 218.497 72.8618 217.579 72.8618C216.762 72.8618 216.047 73.0405 215.435 73.3978C214.822 73.7551 214.337 74.2145 214.005 74.8015C213.674 75.3885 213.418 75.95 213.24 76.5115C213.087 77.073 212.959 77.6345 212.934 78.196C214.414 77.2006 215.996 76.7157 217.706 76.7157C220.08 76.7157 222.02 77.3538 223.525 78.6299C225.031 79.906 225.797 81.7181 225.797 84.0407V84.1172C225.797 86.4653 224.955 88.3795 223.296 89.8598C221.611 91.3656 219.518 92.1057 216.992 92.1057ZM213.878 86.7971C214.593 87.4351 215.588 87.7414 216.813 87.7414C218.038 87.7414 219.008 87.4351 219.723 86.7971C220.437 86.159 220.769 85.3423 220.769 84.3469V84.2704C220.769 83.2495 220.412 82.4583 219.671 81.8457C218.957 81.2332 217.961 80.9269 216.736 80.9269C215.511 80.9269 214.541 81.2332 213.827 81.8202C213.112 82.4327 212.78 83.2239 212.78 84.2448V84.3214C212.78 85.3423 213.138 86.159 213.878 86.7971Z" fill="white"/>
<defs>
<linearGradient id="paint0_linear_35_9086" x1="94.1728" y1="172.831" x2="288.755" y2="172.831" gradientUnits="userSpaceOnUse">
<stop offset="0.00105407" stop-color="#0095C8"/>
<stop offset="1" stop-color="#003DA5"/>
</linearGradient>
<linearGradient id="paint1_linear_35_9086" x1="94.1729" y1="172.831" x2="288.755" y2="172.831" gradientUnits="userSpaceOnUse">
<stop offset="0.00105407" stop-color="#0095C8"/>
<stop offset="1" stop-color="#003DA5"/>
</linearGradient>
<linearGradient id="paint2_linear_35_9086" x1="94.1728" y1="172.831" x2="288.755" y2="172.831" gradientUnits="userSpaceOnUse">
<stop offset="0.00105407" stop-color="#0095C8"/>
<stop offset="1" stop-color="#003DA5"/>
</linearGradient>
<linearGradient id="paint3_linear_35_9086" x1="94.1729" y1="172.937" x2="288.755" y2="172.937" gradientUnits="userSpaceOnUse">
<stop offset="0.00105407" stop-color="#0095C8"/>
<stop offset="1" stop-color="#003DA5"/>
</linearGradient>
<linearGradient id="paint4_linear_35_9086" x1="94.1729" y1="172.831" x2="288.755" y2="172.831" gradientUnits="userSpaceOnUse">
<stop offset="0.00105407" stop-color="#0095C8"/>
<stop offset="1" stop-color="#003DA5"/>
</linearGradient>
<linearGradient id="paint5_linear_35_9086" x1="94.1729" y1="173.119" x2="288.755" y2="173.119" gradientUnits="userSpaceOnUse">
<stop offset="0.00105407" stop-color="#0095C8"/>
<stop offset="1" stop-color="#003DA5"/>
</linearGradient>
<linearGradient id="paint6_linear_35_9086" x1="94.1729" y1="172.831" x2="288.755" y2="172.831" gradientUnits="userSpaceOnUse">
<stop offset="0.00105407" stop-color="#0095C8"/>
<stop offset="1" stop-color="#003DA5"/>
</linearGradient>
<linearGradient id="paint7_linear_35_9086" x1="94.173" y1="172.831" x2="288.755" y2="172.831" gradientUnits="userSpaceOnUse">
<stop offset="0.00105407" stop-color="#0095C8"/>
<stop offset="1" stop-color="#003DA5"/>
</linearGradient>
<linearGradient id="paint8_linear_35_9086" x1="94.173" y1="172.831" x2="288.755" y2="172.831" gradientUnits="userSpaceOnUse">
<stop offset="0.00105407" stop-color="#0095C8"/>
<stop offset="1" stop-color="#003DA5"/>
</linearGradient>
<linearGradient id="paint9_linear_35_9086" x1="94.1728" y1="172.831" x2="288.755" y2="172.831" gradientUnits="userSpaceOnUse">
<stop offset="0.00105407" stop-color="#0095C8"/>
<stop offset="1" stop-color="#003DA5"/>
</linearGradient>
<linearGradient id="paint10_linear_35_9086" x1="94.1728" y1="172.783" x2="288.755" y2="172.783" gradientUnits="userSpaceOnUse">
<stop offset="0.00105407" stop-color="#0095C8"/>
<stop offset="1" stop-color="#003DA5"/>
</linearGradient>
<linearGradient id="paint11_linear_35_9086" x1="94.1728" y1="172.831" x2="288.755" y2="172.831" gradientUnits="userSpaceOnUse">
<stop offset="0.00105407" stop-color="#0095C8"/>
<stop offset="1" stop-color="#003DA5"/>
</linearGradient>
<linearGradient id="paint12_linear_35_9086" x1="94.1733" y1="172.831" x2="288.755" y2="172.831" gradientUnits="userSpaceOnUse">
<stop offset="0.00105407" stop-color="#0095C8"/>
<stop offset="1" stop-color="#003DA5"/>
</linearGradient>
<linearGradient id="paint13_linear_35_9086" x1="94.1727" y1="172.831" x2="288.755" y2="172.831" gradientUnits="userSpaceOnUse">
<stop offset="0.00105407" stop-color="#0095C8"/>
<stop offset="1" stop-color="#003DA5"/>
</linearGradient>
<linearGradient id="paint14_linear_35_9086" x1="94.173" y1="172.783" x2="288.755" y2="172.783" gradientUnits="userSpaceOnUse">
<stop offset="0.00105407" stop-color="#0095C8"/>
<stop offset="1" stop-color="#003DA5"/>
</linearGradient>
<linearGradient id="paint15_linear_35_9086" x1="172.768" y1="-18.0997" x2="221.724" y2="59.982" gradientUnits="userSpaceOnUse">
<stop offset="0.00105407" stop-color="#0095C8"/>
<stop offset="1" stop-color="#003DA5"/>
</linearGradient>
<linearGradient id="paint16_linear_35_9086" x1="186.51" y1="-26.7156" x2="235.466" y2="51.366" gradientUnits="userSpaceOnUse">
<stop offset="0.00105407" stop-color="#0095C8"/>
<stop offset="1" stop-color="#003DA5"/>
</linearGradient>
<linearGradient id="paint17_linear_35_9086" x1="194.488" y1="-31.7178" x2="243.444" y2="46.3638" gradientUnits="userSpaceOnUse">
<stop offset="0.00105407" stop-color="#0095C8"/>
<stop offset="1" stop-color="#003DA5"/>
</linearGradient>
<linearGradient id="paint18_linear_35_9086" x1="150.865" y1="-4.36668" x2="199.821" y2="73.7149" gradientUnits="userSpaceOnUse">
<stop offset="0.00105407" stop-color="#0095C8"/>
<stop offset="1" stop-color="#003DA5"/>
</linearGradient>
<linearGradient id="paint19_linear_35_9086" x1="115.916" y1="17.5459" x2="164.872" y2="95.6275" gradientUnits="userSpaceOnUse">
<stop offset="0.00105407" stop-color="#0095C8"/>
<stop offset="1" stop-color="#003DA5"/>
</linearGradient>
<linearGradient id="paint20_linear_35_9086" x1="95.7766" y1="30.1729" x2="144.733" y2="108.255" gradientUnits="userSpaceOnUse">
<stop offset="0.00105407" stop-color="#0095C8"/>
<stop offset="1" stop-color="#003DA5"/>
</linearGradient>
<linearGradient id="paint21_linear_35_9086" x1="78.4494" y1="41.0369" x2="127.405" y2="119.119" gradientUnits="userSpaceOnUse">
<stop offset="0.00105407" stop-color="#0095C8"/>
<stop offset="1" stop-color="#003DA5"/>
</linearGradient>
</defs>
</svg>
